<?xml version="1.0" encoding="utf-8"?>
<!-- Generator: Adobe Illustrator 24.3.0, SVG Export Plug-In . SVG Version: 6.00 Build 0)  -->
<svg version="1.1" id="Layer_1" xmlns="http://www.w3.org/2000/svg" xmlns:xlink="http://www.w3.org/1999/xlink" x="0px" y="0px"
	 viewBox="0 0 100 100" style="enable-background:new 0 0 100 100;" xml:space="preserve">
<style type="text/css">
	.st0{fill:url(#SVGID_1_);}
	.st1{fill:#115B00;}
	.st2{fill:#DEFF00;}
</style>
<g>
	
		<linearGradient id="SVGID_1_" gradientUnits="userSpaceOnUse" x1="33.2995" y1="-8.0538" x2="51.5111" y2="65.3199" gradientTransform="matrix(1 0 0 -1 0 100)">
		<stop  offset="0" style="stop-color:#115B00"/>
		<stop  offset="1" style="stop-color:#3BC61B"/>
	</linearGradient>
	<polygon class="st0" points="50,89 25,40.8 50,11 75,40.8 	"/>
	<g>
		<polygon class="st1" points="51,42.5 58.5,35.1 58.5,29.7 56.6,29.7 56.6,34.3 49.2,41.5 43.3,41.5 43.3,34 41.4,34 41.4,52.2 
			43.3,52.2 43.3,43.5 49.2,43.5 56.7,51 56.7,59.9 58.6,59.9 58.6,50.2 		"/>
		<g>
			<circle class="st1" cx="42.4" cy="34" r="2.7"/>
			<circle class="st2" cx="42.4" cy="34" r="1.3"/>
		</g>
		<g>
			<circle class="st1" cx="42.4" cy="52.2" r="2.7"/>
			<circle class="st2" cx="42.4" cy="52.2" r="1.3"/>
		</g>
		<g>
			<circle class="st1" cx="57.6" cy="29.7" r="2.7"/>
			<circle class="st2" cx="57.6" cy="29.7" r="1.3"/>
		</g>
		<g>
			<circle class="st1" cx="57.6" cy="59.9" r="2.7"/>
			<circle class="st2" cx="57.6" cy="59.9" r="1.3"/>
		</g>
	</g>
</g>
</svg>
